<svg version="1.1" id="logo" xmlns="http://www.w3.org/2000/svg" xmlns:xlink="http://www.w3.org/1999/xlink" x="0px" y="0px" viewBox="0 0 350 50" style="enable-background:new 0 0 322 50;" xml:space="preserve" class="">
			<style type="text/css">
				.blue{fill:#272262;}
				.green{fill:#39B34A;}
				.pulse{fill:#39B34A;}
				.bug{fill:#00ADEE;}
			</style>
			<path class="bug letter" d="M39.5,17.4c-3,0-5.7,0.9-8,2.4c2.7,2.4,4.6,5.6,5.3,9.3c0.7-0.6,1.7-1,2.7-1c2.3,0,4.3,1.9,4.3,4.3
			s-1.9,4.3-4.3,4.3c-2.3,0-4.3-1.9-4.3-4.3h0c0-5.9-3.5-11-8.5-13.4c-0.2-0.5-0.3-0.9-0.3-1.5c0-2.3,1.9-4.3,4.3-4.3
			c1.9,0,3.6,1.3,4.1,3.1c1.5-0.4,3.1-0.7,4.7-0.7c2.2,0,4.2,0.4,6.1,1.1C45.2,8.9,38.7,2.6,30.7,2.6c-8.2,0-14.9,6.7-14.9,14.9
			c0,0.2,0,0.5,0,0.7C9.8,20,5.4,25.7,5.4,32.3c0,8.2,6.7,14.9,14.9,14.9c3,0,5.7-0.9,8-2.4c-2.7-2.4-4.6-5.6-5.3-9.3
			c-0.7,0.6-1.7,1-2.7,1c-2.3,0-4.3-1.9-4.3-4.3c0-2.3,1.9-4.3,4.3-4.3c2.3,0,4.3,1.9,4.3,4.3h0c0,8.2,6.7,14.9,14.9,14.9
			c8.2,0,14.9-6.7,14.9-14.9S47.7,17.4,39.5,17.4z" style="transform: translateX(0px); opacity: 1;"></path>
		<g>
			<path class="st0 blue letter" d="M70.9,6.9c-6.5,0-11.7,5.3-11.7,11.7c0,6.5,5.3,11.7,11.7,11.7h0.8c5.2,0,9.4-4.2,9.4-9.4h-9.4l-0.8,0
				c-1.3,0-2.3-1.1-2.3-2.3c0-1.3,1.1-2.3,2.3-2.3h2.3h23.5c5.2,0,9.4-4.2,9.4-9.4H73.3H70.9z" style="transform: translateX(0px); opacity: 1;"></path>
			<path class="st0 blue letter" d="M94.4,21h-0.8c-5.2,0-9.4,4.2-9.4,9.4h9.4l0.8,0c1.3,0,2.3,1.1,2.3,2.3c0,1.3-1.1,2.3-2.3,2.3l-2.3,0H68.6
				c-5.2,0-9.4,4.2-9.4,9.4h32.9h2.3c6.5,0,11.7-5.3,11.7-11.7C106.2,26.3,100.9,21,94.4,21z" style="transform: translateX(0px); opacity: 1;"></path>
				<path class="st0 blue letter" d="M127.6,6.9c-10.4,0-18.8,8.4-18.8,18.8s8.4,18.8,18.8,18.8c10.4,0,18.8-8.4,18.8-18.8S137.9,6.9,127.6,6.9z
				 M127.6,35.1c-5.2,0-9.4-4.2-9.4-9.4c0-5.2,4.2-9.4,9.4-9.4c5.2,0,9.4,4.2,9.4,9.4C137,30.9,132.7,35.1,127.6,35.1z" style="transform: translateX(0px); opacity: 1;"></path>
			<path class="st0 blue letter" d="M192.3,35.1h-4.7h-18.8c-5.2,0-9.4-4.2-9.4-9.4V21v-4.7c0-5.2-4.2-9.4-9.4-9.4V21v4.7
				c0,10.4,8.4,18.8,18.8,18.8h18.8h14.1C201.7,39.3,197.5,35.1,192.3,35.1z" style="transform: translateX(0px); opacity: 1;"></path>
			<path class="st0 blue letter" d="M219.3,25.7C219.3,25.7,219.3,25.7,219.3,25.7l-10-10l-3.3-3.3c-7.3-7.3-19.2-7.3-26.6,0l-3.3,3.3l-10,10
				c3.7,3.7,9.6,3.7,13.3,0l3.3-3.3l3.3-3.3c3.7-3.7,9.6-3.7,13.3,0l3.3,3.3l1.4,1.4l0,0l16.6,16.6l3.3,3.3c3.7,3.7,9.6,3.7,13.3,0
				l-10-10L219.3,25.7z" style="transform: translateX(0px); opacity: 1;"></path>
			<path class="st1 green letter" d="M261.7,18.7c0-6.5-5.3-11.7-11.7-11.7h-35.2c0,5.2,4.2,9.4,9.4,9.4H250c1.3,0,2.3,1.1,2.3,2.3
				c0,1.3-1.1,2.3-2.3,2.3h-27.5l22.7,22.7c3.7,3.7,9.6,3.7,13.3,0l-13.3-13.3h4.8C256.5,30.4,261.7,25.1,261.7,18.7z" style="transform: translateX(0px); opacity: 1;"></path>
			<path class="st1 green letter" d="M266.4,7.1v16.5v2.7v4.7v6c0,5.2,4.2,9.4,9.4,9.4V31.1v-4.7v-2.7v-7.1C275.8,11.3,271.6,7.1,266.4,7.1z" style="transform: translateX(0px); opacity: 1;"></path>
			<path class="st1 green letter" d="M299.3,6.9h-18.8c0,5.2,4.2,9.4,9.4,9.4h9.4v0c5.2,0,9.4,4.2,9.4,9.4c0,5.2-4.2,9.4-9.4,9.4v0h-9.4
				c-5.2,0-9.4,4.2-9.4,9.4h18.8c10.4,0,18.8-8.4,18.8-18.8S309.7,6.9,299.3,6.9z" style="transform: translateX(0px); opacity: 1;"></path>
		</g>
		</svg>